<svg width="3000" height="3000" viewBox="0 0 3000 3000" fill="none" xmlns="http://www.w3.org/2000/svg">
<circle cx="1500" cy="1500" r="1500" fill="url(#paint0_linear_751_4)"/>
<circle cx="1500" cy="1500" r="1350" fill="black"/>
<path d="M1304.12 1439.73H1197.59C1196.16 1428.8 1193.25 1418.92 1188.85 1410.12C1184.45 1401.31 1178.62 1393.78 1171.38 1387.53C1164.13 1381.28 1155.54 1376.52 1145.6 1373.26C1135.8 1369.85 1124.93 1368.14 1113 1368.14C1091.83 1368.14 1073.58 1373.33 1058.24 1383.7C1043.04 1394.07 1031.32 1409.05 1023.08 1428.65C1014.99 1448.26 1010.94 1471.98 1010.94 1499.82C1010.94 1528.8 1015.06 1553.09 1023.3 1572.69C1031.68 1592.15 1043.39 1606.85 1058.45 1616.79C1073.65 1626.59 1091.62 1631.49 1112.36 1631.49C1124.01 1631.49 1134.59 1630 1144.11 1627.02C1153.76 1624.04 1162.22 1619.7 1169.46 1614.02C1176.85 1608.2 1182.88 1601.17 1187.57 1592.93C1192.4 1584.55 1195.74 1575.1 1197.59 1564.59L1304.12 1565.23C1302.27 1584.55 1296.66 1603.58 1287.29 1622.33C1278.05 1641.08 1265.34 1658.2 1249.15 1673.68C1232.95 1689.02 1213.21 1701.24 1189.91 1710.33C1166.76 1719.42 1140.2 1723.97 1110.23 1723.97C1070.74 1723.97 1035.37 1715.3 1004.12 1697.97C973.011 1680.5 948.438 1655.07 930.398 1621.69C912.358 1588.31 903.338 1547.69 903.338 1499.82C903.338 1451.81 912.5 1411.11 930.824 1377.73C949.148 1344.35 973.935 1318.99 1005.18 1301.66C1036.43 1284.34 1071.45 1275.67 1110.23 1275.67C1136.65 1275.67 1161.08 1279.36 1183.52 1286.75C1205.97 1293.99 1225.71 1304.65 1242.76 1318.71C1259.8 1332.63 1273.65 1349.75 1284.3 1370.06C1294.96 1390.37 1301.56 1413.6 1304.12 1439.73ZM1600.34 1412.46C1598.92 1396.84 1592.6 1384.69 1581.37 1376.03C1570.29 1367.22 1554.46 1362.82 1533.86 1362.82C1520.22 1362.82 1508.86 1364.59 1499.77 1368.14C1490.68 1371.69 1483.86 1376.59 1479.31 1382.84C1474.77 1388.95 1472.43 1395.98 1472.28 1403.94C1472 1410.47 1473.28 1416.22 1476.12 1421.2C1479.1 1426.17 1483.36 1430.57 1488.9 1434.41C1494.58 1438.1 1501.4 1441.37 1509.36 1444.21C1517.31 1447.05 1526.26 1449.53 1536.2 1451.66L1573.7 1460.19C1595.29 1464.88 1614.33 1471.12 1630.81 1478.94C1647.43 1486.75 1661.35 1496.05 1672.57 1506.85C1683.93 1517.64 1692.52 1530.07 1698.35 1544.14C1704.17 1558.2 1707.16 1573.97 1707.3 1591.44C1707.16 1618.99 1700.2 1642.64 1686.42 1662.39C1672.64 1682.13 1652.82 1697.26 1626.97 1707.77C1601.26 1718.28 1570.22 1723.54 1533.86 1723.54C1497.35 1723.54 1465.54 1718.07 1438.41 1707.13C1411.27 1696.2 1390.18 1679.58 1375.12 1657.28C1360.07 1634.97 1352.33 1606.78 1351.9 1572.69H1452.89C1453.75 1586.75 1457.51 1598.47 1464.19 1607.84C1470.86 1617.22 1480.02 1624.32 1491.67 1629.15C1503.46 1633.98 1517.1 1636.39 1532.58 1636.39C1546.79 1636.39 1558.86 1634.48 1568.8 1630.64C1578.89 1626.81 1586.63 1621.48 1592.03 1614.66C1597.43 1607.84 1600.2 1600.03 1600.34 1591.22C1600.2 1582.99 1597.64 1575.95 1592.67 1570.13C1587.7 1564.16 1580.02 1559.05 1569.66 1554.79C1559.43 1550.39 1546.36 1546.34 1530.45 1542.64L1484.85 1531.99C1447.07 1523.33 1417.31 1509.34 1395.58 1490.02C1373.85 1470.56 1363.05 1444.28 1363.19 1411.18C1363.05 1384.19 1370.29 1360.54 1384.93 1340.23C1399.56 1319.92 1419.8 1304.08 1445.65 1292.72C1471.5 1281.35 1500.98 1275.67 1534.07 1275.67C1567.88 1275.67 1597.21 1281.42 1622.07 1292.93C1647.07 1304.29 1666.46 1320.27 1680.24 1340.87C1694.02 1361.47 1701.05 1385.33 1701.33 1412.46H1600.34ZM1996.43 1412.46C1995.01 1396.84 1988.69 1384.69 1977.47 1376.03C1966.39 1367.22 1950.55 1362.82 1929.95 1362.82C1916.32 1362.82 1904.95 1364.59 1895.86 1368.14C1886.77 1371.69 1879.95 1376.59 1875.41 1382.84C1870.86 1388.95 1868.52 1395.98 1868.38 1403.94C1868.09 1410.47 1869.37 1416.22 1872.21 1421.2C1875.2 1426.17 1879.46 1430.57 1885 1434.41C1890.68 1438.1 1897.5 1441.37 1905.45 1444.21C1913.41 1447.05 1922.35 1449.53 1932.3 1451.66L1969.8 1460.19C1991.39 1464.88 2010.42 1471.12 2026.9 1478.94C2043.52 1486.75 2057.44 1496.05 2068.66 1506.85C2080.02 1517.64 2088.62 1530.07 2094.44 1544.14C2100.27 1558.2 2103.25 1573.97 2103.39 1591.44C2103.25 1618.99 2096.29 1642.64 2082.51 1662.39C2068.73 1682.13 2048.92 1697.26 2023.06 1707.77C1997.35 1718.28 1966.32 1723.54 1929.95 1723.54C1893.45 1723.54 1861.63 1718.07 1834.5 1707.13C1807.37 1696.2 1786.27 1679.58 1771.22 1657.28C1756.16 1634.97 1748.42 1606.78 1747.99 1572.69H1848.99C1849.84 1586.75 1853.6 1598.47 1860.28 1607.84C1866.96 1617.22 1876.12 1624.32 1887.77 1629.15C1899.56 1633.98 1913.19 1636.39 1928.68 1636.39C1942.88 1636.39 1954.95 1634.48 1964.9 1630.64C1974.98 1626.81 1982.72 1621.48 1988.12 1614.66C1993.52 1607.84 1996.29 1600.03 1996.43 1591.22C1996.29 1582.99 1993.73 1575.95 1988.76 1570.13C1983.79 1564.16 1976.12 1559.05 1965.75 1554.79C1955.52 1550.39 1942.45 1546.34 1926.54 1542.64L1880.95 1531.99C1843.16 1523.33 1813.41 1509.34 1791.67 1490.02C1769.94 1470.56 1759.14 1444.28 1759.29 1411.18C1759.14 1384.19 1766.39 1360.54 1781.02 1340.23C1795.65 1319.92 1815.89 1304.08 1841.74 1292.72C1867.6 1281.35 1897.07 1275.67 1930.17 1275.67C1963.97 1275.67 1993.31 1281.42 2018.16 1292.93C2043.16 1304.29 2062.55 1320.27 2076.33 1340.87C2090.11 1361.47 2097.14 1385.33 2097.43 1412.46H1996.43Z" fill="white"/>
<defs>
<linearGradient id="paint0_linear_751_4" x1="1500" y1="0" x2="1500" y2="3000" gradientUnits="userSpaceOnUse">
<stop stop-color="#AB30D5"/>
<stop offset="0.275" stop-color="#190045"/>
<stop offset="0.795" stop-color="#732F81"/>
<stop offset="0.95" stop-color="#780885"/>
</linearGradient>
</defs>
</svg>
