<svg width="3000" height="3000" viewBox="0 0 3000 3000" fill="none" xmlns="http://www.w3.org/2000/svg">
<circle cx="1500" cy="1500" r="1500" fill="url(#paint0_linear_751_4)"/>
<circle cx="1500" cy="1500" r="1350" fill="black"/>
<path d="M485.983 1760.47C457.811 1760.47 432.207 1753.18 409.172 1738.59C386.137 1724.01 367.742 1702.14 353.987 1672.97C340.232 1643.8 333.355 1607.59 333.355 1564.34C333.355 1519.43 340.481 1482.47 354.733 1453.47C368.985 1424.47 387.628 1403.01 410.663 1389.09C433.864 1375.17 458.805 1368.21 485.486 1368.21C505.538 1368.21 522.69 1371.69 536.942 1378.65C551.194 1385.45 562.96 1394.23 572.24 1405C581.52 1415.77 588.563 1426.96 593.369 1438.56H595.855V1245.91H717.411V1755H597.098V1693.1H593.369C588.232 1704.87 580.94 1715.89 571.494 1726.16C562.048 1736.44 550.199 1744.73 535.947 1751.02C521.861 1757.32 505.206 1760.47 485.983 1760.47ZM528.241 1665.76C542.991 1665.76 555.585 1661.62 566.026 1653.33C576.466 1644.88 584.503 1633.03 590.138 1617.78C595.772 1602.54 598.589 1584.64 598.589 1564.09C598.589 1543.21 595.772 1525.23 590.138 1510.15C584.669 1495.07 576.632 1483.47 566.026 1475.35C555.585 1467.23 542.991 1463.17 528.241 1463.17C513.161 1463.17 500.401 1467.31 489.96 1475.6C479.52 1483.88 471.565 1495.57 466.097 1510.65C460.794 1525.73 458.142 1543.54 458.142 1564.09C458.142 1584.64 460.876 1602.54 466.345 1617.78C471.814 1633.03 479.686 1644.88 489.96 1653.33C500.401 1661.62 513.161 1665.76 528.241 1665.76ZM794.284 1373.18H915.839V1770.91C915.839 1802.4 909.376 1827.42 896.45 1845.98C883.69 1864.54 865.626 1877.88 842.26 1886C818.893 1894.12 791.301 1898.18 759.483 1898.18C755.174 1898.18 751.114 1898.1 747.302 1897.93C743.491 1897.77 739.348 1897.6 734.873 1897.44V1805.21C737.856 1805.54 740.508 1805.79 742.828 1805.96C745.148 1806.12 747.468 1806.21 749.788 1806.21C766.526 1806.21 778.126 1803.06 784.589 1796.76C791.052 1790.63 794.284 1781.18 794.284 1768.42V1373.18ZM854.937 1328.69C837.868 1328.69 823.202 1323.05 810.939 1311.78C798.675 1300.35 792.544 1286.59 792.544 1270.52C792.544 1254.61 798.675 1241.02 810.939 1229.75C823.202 1218.32 837.868 1212.6 854.937 1212.6C872.172 1212.6 886.838 1218.32 898.936 1229.75C911.199 1241.02 917.331 1254.61 917.331 1270.52C917.331 1286.59 911.199 1300.35 898.936 1311.78C886.838 1323.05 872.172 1328.69 854.937 1328.69ZM1100.84 1761.46C1076.48 1761.46 1054.86 1757.4 1035.97 1749.28C1017.24 1741 1002.41 1728.57 991.469 1712C980.698 1695.26 975.312 1674.29 975.312 1649.11C975.312 1627.89 979.04 1610 986.498 1595.41C993.955 1580.83 1004.23 1568.98 1017.32 1559.87C1030.41 1550.75 1045.49 1543.87 1062.56 1539.23C1079.63 1534.43 1097.86 1531.2 1117.25 1529.54C1138.96 1527.55 1156.44 1525.48 1169.7 1523.32C1182.96 1521 1192.57 1517.77 1198.54 1513.63C1204.67 1509.32 1207.73 1503.27 1207.73 1495.48V1494.24C1207.73 1481.48 1203.34 1471.62 1194.56 1464.66C1185.78 1457.7 1173.93 1454.22 1159.01 1454.22C1142.94 1454.22 1130.01 1457.7 1120.23 1464.66C1110.46 1471.62 1104.24 1481.23 1101.59 1493.49L989.481 1489.52C992.795 1466.32 1001.33 1445.6 1015.08 1427.37C1029 1408.98 1048.06 1394.56 1072.26 1384.12C1096.62 1373.51 1125.87 1368.21 1160.01 1368.21C1184.37 1368.21 1206.82 1371.11 1227.37 1376.91C1247.92 1382.54 1265.82 1390.83 1281.06 1401.77C1296.31 1412.54 1308.08 1425.8 1316.36 1441.54C1324.81 1457.28 1329.04 1475.27 1329.04 1495.48V1755H1214.69V1701.8H1211.71C1204.92 1714.73 1196.22 1725.67 1185.61 1734.62C1175.17 1743.57 1162.82 1750.28 1148.57 1754.75C1134.49 1759.23 1118.58 1761.46 1100.84 1761.46ZM1138.38 1681.92C1151.47 1681.92 1163.24 1679.27 1173.68 1673.96C1184.28 1668.66 1192.74 1661.37 1199.03 1652.09C1205.33 1642.64 1208.48 1631.7 1208.48 1619.28V1582.98C1205 1584.81 1200.77 1586.46 1195.8 1587.95C1191 1589.45 1185.69 1590.85 1179.89 1592.18C1174.09 1593.51 1168.13 1594.67 1162 1595.66C1155.86 1596.65 1149.98 1597.57 1144.35 1598.39C1132.91 1600.22 1123.13 1603.04 1115.01 1606.85C1107.06 1610.66 1100.93 1615.63 1096.62 1621.76C1092.48 1627.73 1090.4 1634.85 1090.4 1643.14C1090.4 1655.73 1094.88 1665.35 1103.83 1671.97C1112.94 1678.6 1124.46 1681.92 1138.38 1681.92ZM1524.92 1537.24V1755H1403.37V1373.18H1518.96V1443.28H1523.18C1531.63 1419.91 1546.05 1401.6 1566.43 1388.35C1586.82 1374.92 1611.1 1368.21 1639.27 1368.21C1666.11 1368.21 1689.4 1374.26 1709.12 1386.36C1729 1398.29 1744.42 1415.03 1755.35 1436.57C1766.46 1457.95 1771.93 1482.97 1771.76 1511.64V1755H1650.21V1535.5C1650.37 1514.29 1644.99 1497.72 1634.05 1485.79C1623.28 1473.86 1608.28 1467.89 1589.05 1467.89C1576.29 1467.89 1565.03 1470.71 1555.25 1476.34C1545.64 1481.81 1538.18 1489.68 1532.88 1499.96C1527.74 1510.23 1525.09 1522.66 1524.92 1537.24ZM2025 1906.14C1988.71 1906.14 1957.64 1901.08 1931.78 1890.97C1905.93 1880.86 1885.63 1867.03 1870.88 1849.46C1856.13 1831.89 1847.27 1812.01 1844.28 1789.8L1959.38 1783.34C1961.53 1791.13 1965.51 1797.92 1971.31 1803.72C1977.27 1809.52 1984.98 1814 1994.43 1817.14C2004.04 1820.29 2015.31 1821.87 2028.23 1821.87C2048.62 1821.87 2065.44 1816.9 2078.69 1806.95C2092.12 1797.18 2098.83 1780.02 2098.83 1755.5V1688.38H2094.6C2089.8 1700.15 2082.51 1710.67 2072.73 1719.95C2062.95 1729.23 2050.77 1736.52 2036.19 1741.83C2021.77 1747.13 2005.2 1749.78 1986.47 1749.78C1958.63 1749.78 1933.11 1743.32 1909.91 1730.39C1886.87 1717.3 1868.4 1697.08 1854.48 1669.74C1840.72 1642.23 1833.84 1606.85 1833.84 1563.59C1833.84 1519.02 1840.97 1482.31 1855.22 1453.47C1869.47 1424.47 1888.12 1403.01 1911.15 1389.09C1934.35 1375.17 1959.29 1368.21 1985.97 1368.21C2006.03 1368.21 2023.18 1371.69 2037.43 1378.65C2051.85 1385.45 2063.7 1394.23 2072.98 1405C2082.26 1415.77 2089.3 1426.96 2094.11 1438.56H2097.59V1373.18H2218.64V1756.49C2218.64 1788.81 2210.52 1816.07 2194.28 1838.27C2178.04 1860.48 2155.34 1877.3 2126.17 1888.74C2097.01 1900.34 2063.28 1906.14 2025 1906.14ZM2028.73 1661.29C2043.48 1661.29 2056.07 1657.39 2066.51 1649.6C2076.95 1641.81 2084.99 1630.63 2090.63 1616.04C2096.26 1601.46 2099.08 1583.98 2099.08 1563.59C2099.08 1542.88 2096.26 1525.06 2090.63 1510.15C2085.16 1495.07 2077.12 1483.47 2066.51 1475.35C2056.07 1467.23 2043.48 1463.17 2028.73 1463.17C2013.65 1463.17 2000.89 1467.31 1990.45 1475.6C1980.01 1483.88 1972.05 1495.57 1966.58 1510.65C1961.28 1525.56 1958.63 1543.21 1958.63 1563.59C1958.63 1583.98 1961.36 1601.46 1966.83 1616.04C1972.3 1630.63 1980.17 1641.81 1990.45 1649.6C2000.89 1657.39 2013.65 1661.29 2028.73 1661.29ZM2474.37 1762.21C2434.27 1762.21 2399.8 1754.01 2370.96 1737.6C2342.29 1721.03 2320.17 1697.99 2304.59 1668.49C2289.18 1638.83 2281.47 1604.44 2281.47 1565.33C2281.47 1526.06 2289.18 1491.67 2304.59 1462.17C2320.17 1432.51 2342.29 1409.47 2370.96 1393.07C2399.8 1376.5 2434.27 1368.21 2474.37 1368.21C2514.47 1368.21 2548.86 1376.5 2577.53 1393.07C2606.37 1409.47 2628.49 1432.51 2643.9 1462.17C2659.48 1491.67 2667.27 1526.06 2667.27 1565.33C2667.27 1604.44 2659.48 1638.83 2643.9 1668.49C2628.49 1697.99 2606.37 1721.03 2577.53 1737.6C2548.86 1754.01 2514.47 1762.21 2474.37 1762.21ZM2475.12 1670.48C2489.7 1670.48 2502.05 1666.01 2512.15 1657.06C2522.26 1648.11 2529.97 1635.68 2535.27 1619.77C2540.74 1603.86 2543.48 1585.47 2543.48 1564.59C2543.48 1543.38 2540.74 1524.82 2535.27 1508.91C2529.97 1493 2522.26 1480.57 2512.15 1471.62C2502.05 1462.67 2489.7 1458.2 2475.12 1458.2C2460.04 1458.2 2447.28 1462.67 2436.84 1471.62C2426.56 1480.57 2418.69 1493 2413.22 1508.91C2407.92 1524.82 2405.27 1543.38 2405.27 1564.59C2405.27 1585.47 2407.92 1603.86 2413.22 1619.77C2418.69 1635.68 2426.56 1648.11 2436.84 1657.06C2447.28 1666.01 2460.04 1670.48 2475.12 1670.48Z" fill="white"/>
<defs>
<linearGradient id="paint0_linear_751_4" x1="1500" y1="0" x2="1500" y2="3000" gradientUnits="userSpaceOnUse">
<stop stop-color="#AB30D5"/>
<stop offset="0.275" stop-color="#190045"/>
<stop offset="0.795" stop-color="#732F81"/>
<stop offset="0.95" stop-color="#780885"/>
</linearGradient>
</defs>
</svg>
