<svg width="3000" height="3000" viewBox="0 0 3000 3000" fill="none" xmlns="http://www.w3.org/2000/svg">
<circle cx="1500" cy="1500" r="1500" fill="url(#paint0_linear_751_4)"/>
<circle cx="1500" cy="1500" r="1350" fill="black"/>
<path d="M829.94 1245.91V1755H707.142V1360.75H704.159L590.31 1430.36V1323.96L715.842 1245.91H829.94ZM1153.03 1767.43C1108.62 1767.43 1070.34 1756.91 1038.19 1735.86C1006.04 1714.65 981.263 1684.24 963.863 1644.63C946.462 1604.86 937.845 1557.05 938.01 1501.2C938.176 1445.35 946.876 1397.96 964.111 1359.01C981.512 1319.9 1006.2 1290.16 1038.19 1269.77C1070.34 1249.22 1108.62 1238.95 1153.03 1238.95C1197.44 1238.95 1235.73 1249.22 1267.88 1269.77C1300.19 1290.16 1325.05 1319.9 1342.45 1359.01C1359.85 1398.12 1368.47 1445.52 1368.3 1501.2C1368.3 1557.21 1359.6 1605.11 1342.2 1644.88C1324.8 1684.65 1300.03 1715.06 1267.88 1736.11C1235.89 1756.99 1197.61 1767.43 1153.03 1767.43ZM1153.03 1666.75C1179.55 1666.75 1201.01 1653.25 1217.41 1626.24C1233.82 1599.06 1241.94 1557.38 1241.77 1501.2C1241.77 1464.41 1238.05 1434.08 1230.59 1410.22C1223.13 1386.19 1212.77 1368.29 1199.52 1356.53C1186.26 1344.76 1170.76 1338.88 1153.03 1338.88C1126.68 1338.88 1105.39 1352.22 1089.15 1378.9C1072.91 1405.41 1064.7 1446.18 1064.54 1501.2C1064.37 1538.49 1067.93 1569.39 1075.23 1593.92C1082.68 1618.45 1093.12 1636.76 1106.55 1648.86C1119.97 1660.79 1135.47 1666.75 1153.03 1666.75ZM1649.32 1767.43C1604.91 1767.43 1566.63 1756.91 1534.48 1735.86C1502.33 1714.65 1477.55 1684.24 1460.15 1644.63C1442.75 1604.86 1434.13 1557.05 1434.3 1501.2C1434.47 1445.35 1443.17 1397.96 1460.4 1359.01C1477.8 1319.9 1502.49 1290.16 1534.48 1269.77C1566.63 1249.22 1604.91 1238.95 1649.32 1238.95C1693.73 1238.95 1732.01 1249.22 1764.16 1269.77C1796.48 1290.16 1821.34 1319.9 1838.74 1359.01C1856.14 1398.12 1864.76 1445.52 1864.59 1501.2C1864.59 1557.21 1855.89 1605.11 1838.49 1644.88C1821.09 1684.65 1796.31 1715.06 1764.16 1736.11C1732.18 1756.99 1693.9 1767.43 1649.32 1767.43ZM1649.32 1666.75C1675.84 1666.75 1697.3 1653.25 1713.7 1626.24C1730.11 1599.06 1738.23 1557.38 1738.06 1501.2C1738.06 1464.41 1734.33 1434.08 1726.88 1410.22C1719.42 1386.19 1709.06 1368.29 1695.81 1356.53C1682.55 1344.76 1667.05 1338.88 1649.32 1338.88C1622.97 1338.88 1601.68 1352.22 1585.44 1378.9C1569.2 1405.41 1560.99 1446.18 1560.83 1501.2C1560.66 1538.49 1564.22 1569.39 1571.52 1593.92C1578.97 1618.45 1589.41 1636.76 1602.84 1648.86C1616.26 1660.79 1631.75 1666.75 1649.32 1666.75ZM2220.18 1659.55V1632.7C2220.18 1611.82 2224.66 1592.51 2233.61 1574.78C2242.72 1557.05 2255.9 1542.8 2273.13 1532.02C2290.37 1521.25 2311.41 1515.87 2336.27 1515.87C2361.63 1515.87 2382.92 1521.25 2400.16 1532.02C2417.56 1542.63 2430.65 1556.8 2439.43 1574.53C2448.38 1592.1 2452.85 1611.49 2452.85 1632.7V1659.55C2452.85 1680.43 2448.38 1699.73 2439.43 1717.46C2430.48 1735.2 2417.31 1749.45 2399.91 1760.22C2382.51 1770.99 2361.29 1776.38 2336.27 1776.38C2311.08 1776.38 2289.87 1770.99 2272.63 1760.22C2255.4 1749.45 2242.31 1735.2 2233.36 1717.46C2224.58 1699.73 2220.18 1680.43 2220.18 1659.55ZM2299.48 1632.7V1659.55C2299.48 1670.15 2302.05 1680.34 2307.19 1690.12C2312.49 1699.9 2322.18 1704.79 2336.27 1704.79C2350.69 1704.79 2360.38 1700.06 2365.35 1690.62C2370.33 1681.01 2372.81 1670.65 2372.81 1659.55V1632.7C2372.81 1621.6 2370.41 1611.16 2365.6 1601.38C2360.96 1591.43 2351.19 1586.46 2336.27 1586.46C2322.35 1586.46 2312.74 1591.43 2307.44 1601.38C2302.13 1611.16 2299.48 1621.6 2299.48 1632.7ZM1956.19 1368.21V1341.36C1956.19 1320.15 1960.75 1300.76 1969.86 1283.2C1979.14 1265.46 1992.4 1251.29 2009.64 1240.69C2026.87 1229.92 2047.75 1224.53 2072.28 1224.53C2097.63 1224.53 2118.93 1229.92 2136.16 1240.69C2153.56 1251.29 2166.74 1265.46 2175.69 1283.2C2184.64 1300.76 2189.11 1320.15 2189.11 1341.36V1368.21C2189.11 1389.42 2184.55 1408.81 2175.44 1426.38C2166.49 1443.94 2153.32 1457.95 2135.92 1468.39C2118.51 1478.83 2097.3 1484.05 2072.28 1484.05C2047.26 1484.05 2026.04 1478.75 2008.64 1468.14C1991.41 1457.53 1978.32 1443.45 1969.37 1425.88C1960.58 1408.31 1956.19 1389.09 1956.19 1368.21ZM2036.23 1341.36V1368.21C2036.23 1379.31 2038.8 1389.67 2043.94 1399.28C2049.24 1408.73 2058.69 1413.45 2072.28 1413.45C2086.86 1413.45 2096.56 1408.73 2101.36 1399.28C2106.33 1389.67 2108.82 1379.31 2108.82 1368.21V1341.36C2108.82 1330.26 2106.5 1319.82 2101.86 1310.04C2097.22 1300.1 2087.36 1295.13 2072.28 1295.13C2058.36 1295.13 2048.83 1300.18 2043.69 1310.29C2038.72 1320.4 2036.23 1330.76 2036.23 1341.36ZM1993.73 1755L2343.73 1245.91H2411.59L2061.59 1755H1993.73Z" fill="white"/>
<defs>
<linearGradient id="paint0_linear_751_4" x1="1500" y1="0" x2="1500" y2="3000" gradientUnits="userSpaceOnUse">
<stop stop-color="#AB30D5"/>
<stop offset="0.275" stop-color="#190045"/>
<stop offset="0.795" stop-color="#732F81"/>
<stop offset="0.95" stop-color="#780885"/>
</linearGradient>
</defs>
</svg>
