<svg width="3000" height="3000" viewBox="0 0 3000 3000" fill="none" xmlns="http://www.w3.org/2000/svg">
<circle cx="1500" cy="1500" r="1500" fill="url(#paint0_linear_751_4)"/>
<circle cx="1500" cy="1500" r="1350" fill="black"/>
<path d="M577.199 1354.09H646.517V1555.23C646.422 1574.07 641.924 1590.55 633.023 1604.66C624.121 1618.67 611.811 1629.56 596.091 1637.33C580.466 1645.09 562.379 1648.98 541.83 1648.98C523.648 1648.98 507.123 1645.8 492.256 1639.46C477.483 1633.12 465.693 1623.27 456.886 1609.91C448.174 1596.56 443.866 1579.47 443.96 1558.64H513.989C514.273 1566.12 515.693 1572.51 518.25 1577.81C520.902 1583.02 524.547 1586.95 529.188 1589.6C533.828 1592.25 539.367 1593.58 545.807 1593.58C552.53 1593.58 558.212 1592.16 562.852 1589.32C567.492 1586.38 570.996 1582.07 573.364 1576.39C575.826 1570.71 577.104 1563.66 577.199 1555.23V1354.09ZM752.163 1648.69C738.243 1648.69 725.885 1646.37 715.089 1641.73C704.389 1637 695.913 1629.9 689.663 1620.43C683.508 1610.86 680.43 1598.88 680.43 1584.49C680.43 1572.37 682.561 1562.14 686.822 1553.81C691.084 1545.47 696.955 1538.7 704.436 1533.49C711.917 1528.29 720.535 1524.36 730.288 1521.7C740.042 1518.96 750.459 1517.11 761.538 1516.16C773.944 1515.03 783.934 1513.84 791.51 1512.61C799.086 1511.29 804.578 1509.44 807.987 1507.07C811.491 1504.61 813.243 1501.16 813.243 1496.7V1495.99C813.243 1488.7 810.733 1483.07 805.714 1479.09C800.696 1475.11 793.925 1473.12 785.402 1473.12C776.216 1473.12 768.83 1475.11 763.243 1479.09C757.656 1483.07 754.105 1488.56 752.589 1495.57L688.527 1493.3C690.421 1480.04 695.298 1468.2 703.158 1457.78C711.112 1447.27 722.002 1439.03 735.828 1433.07C749.749 1427.01 766.463 1423.98 785.97 1423.98C799.891 1423.98 812.722 1425.63 824.464 1428.95C836.207 1432.17 846.434 1436.9 855.146 1443.15C863.858 1449.31 870.582 1456.88 875.317 1465.88C880.146 1474.88 882.561 1485.15 882.561 1496.7V1645H817.22V1614.6H815.516C811.633 1621.99 806.661 1628.24 800.601 1633.35C794.635 1638.47 787.58 1642.3 779.436 1644.86C771.387 1647.41 762.296 1648.69 752.163 1648.69ZM773.612 1603.24C781.093 1603.24 787.817 1601.72 793.783 1598.69C799.843 1595.66 804.673 1591.5 808.271 1586.19C811.87 1580.8 813.669 1574.55 813.669 1567.44V1546.7C811.68 1547.75 809.266 1548.69 806.425 1549.55C803.679 1550.4 800.648 1551.2 797.334 1551.96C794.019 1552.72 790.61 1553.38 787.107 1553.95C783.603 1554.52 780.241 1555.04 777.021 1555.51C770.487 1556.55 764.9 1558.16 760.26 1560.34C755.714 1562.52 752.211 1565.36 749.749 1568.86C747.381 1572.27 746.197 1576.34 746.197 1581.08C746.197 1588.28 748.754 1593.77 753.868 1597.56C759.076 1601.34 765.658 1603.24 773.612 1603.24ZM1128.87 1426.82L1054.01 1645H974.464L899.749 1426.82H972.902L1013.1 1577.1H1015.37L1055.71 1426.82H1128.87ZM1211.15 1648.69C1197.23 1648.69 1184.87 1646.37 1174.07 1641.73C1163.37 1637 1154.9 1629.9 1148.65 1620.43C1142.49 1610.86 1139.41 1598.88 1139.41 1584.49C1139.41 1572.37 1141.55 1562.14 1145.81 1553.81C1150.07 1545.47 1155.94 1538.7 1163.42 1533.49C1170.9 1528.29 1179.52 1524.36 1189.27 1521.7C1199.03 1518.96 1209.44 1517.11 1220.52 1516.16C1232.93 1515.03 1242.92 1513.84 1250.49 1512.61C1258.07 1511.29 1263.56 1509.44 1266.97 1507.07C1270.48 1504.61 1272.23 1501.16 1272.23 1496.7V1495.99C1272.23 1488.7 1269.72 1483.07 1264.7 1479.09C1259.68 1475.11 1252.91 1473.12 1244.39 1473.12C1235.2 1473.12 1227.81 1475.11 1222.23 1479.09C1216.64 1483.07 1213.09 1488.56 1211.57 1495.57L1147.51 1493.3C1149.41 1480.04 1154.28 1468.2 1162.14 1457.78C1170.1 1447.27 1180.99 1439.03 1194.81 1433.07C1208.73 1427.01 1225.45 1423.98 1244.95 1423.98C1258.88 1423.98 1271.71 1425.63 1283.45 1428.95C1295.19 1432.17 1305.42 1436.9 1314.13 1443.15C1322.84 1449.31 1329.57 1456.88 1334.3 1465.88C1339.13 1474.88 1341.55 1485.15 1341.55 1496.7V1645H1276.2V1614.6H1274.5C1270.62 1621.99 1265.65 1628.24 1259.59 1633.35C1253.62 1638.47 1246.56 1642.3 1238.42 1644.86C1230.37 1647.41 1221.28 1648.69 1211.15 1648.69ZM1232.6 1603.24C1240.08 1603.24 1246.8 1601.72 1252.77 1598.69C1258.83 1595.66 1263.66 1591.5 1267.26 1586.19C1270.85 1580.8 1272.65 1574.55 1272.65 1567.44V1546.7C1270.66 1547.75 1268.25 1548.69 1265.41 1549.55C1262.66 1550.4 1259.63 1551.2 1256.32 1551.96C1253 1552.72 1249.59 1553.38 1246.09 1553.95C1242.59 1554.52 1239.23 1555.04 1236.01 1555.51C1229.47 1556.55 1223.88 1558.16 1219.24 1560.34C1214.7 1562.52 1211.2 1565.36 1208.73 1568.86C1206.37 1572.27 1205.18 1576.34 1205.18 1581.08C1205.18 1588.28 1207.74 1593.77 1212.85 1597.56C1218.06 1601.34 1224.64 1603.24 1232.6 1603.24ZM1541.26 1441.31C1540.31 1430.89 1536.1 1422.79 1528.62 1417.02C1521.23 1411.15 1510.67 1408.21 1496.94 1408.21C1487.85 1408.21 1480.28 1409.39 1474.22 1411.76C1468.16 1414.13 1463.61 1417.4 1460.58 1421.56C1457.55 1425.63 1455.99 1430.32 1455.89 1435.62C1455.7 1439.98 1456.55 1443.82 1458.45 1447.13C1460.44 1450.45 1463.28 1453.38 1466.97 1455.94C1470.76 1458.4 1475.3 1460.58 1480.61 1462.47C1485.91 1464.37 1491.88 1466.02 1498.51 1467.44L1523.51 1473.12C1537.9 1476.25 1550.59 1480.42 1561.57 1485.62C1572.65 1490.83 1581.93 1497.04 1589.41 1504.23C1596.99 1511.43 1602.72 1519.72 1606.6 1529.09C1610.48 1538.47 1612.47 1548.98 1612.57 1560.62C1612.47 1579 1607.83 1594.76 1598.65 1607.93C1589.46 1621.09 1576.25 1631.17 1559.02 1638.18C1541.88 1645.19 1521.19 1648.69 1496.94 1648.69C1472.61 1648.69 1451.39 1645.05 1433.31 1637.76C1415.22 1630.46 1401.16 1619.38 1391.12 1604.52C1381.08 1589.65 1375.92 1570.85 1375.64 1548.12H1442.97C1443.53 1557.5 1446.04 1565.31 1450.49 1571.56C1454.95 1577.81 1461.05 1582.55 1468.82 1585.77C1476.68 1588.99 1485.77 1590.6 1496.09 1590.6C1505.56 1590.6 1513.61 1589.32 1520.24 1586.76C1526.96 1584.2 1532.12 1580.65 1535.72 1576.11C1539.32 1571.56 1541.17 1566.35 1541.26 1560.48C1541.17 1554.99 1539.46 1550.3 1536.15 1546.42C1532.83 1542.44 1527.72 1539.03 1520.81 1536.19C1513.99 1533.26 1505.28 1530.56 1494.67 1528.1L1464.27 1520.99C1439.08 1515.22 1419.24 1505.89 1404.76 1493.01C1390.27 1480.04 1383.07 1462.52 1383.16 1440.45C1383.07 1422.46 1387.9 1406.7 1397.65 1393.15C1407.41 1379.61 1420.9 1369.05 1438.14 1361.48C1455.37 1353.9 1475.02 1350.11 1497.09 1350.11C1519.62 1350.11 1539.18 1353.95 1555.75 1361.62C1572.42 1369.2 1585.34 1379.85 1594.53 1393.58C1603.71 1407.31 1608.4 1423.22 1608.59 1441.31H1541.26ZM1749.93 1649.12C1726.91 1649.12 1707.17 1644.38 1690.69 1634.91C1674.31 1625.45 1661.72 1612.28 1652.91 1595.43C1644.1 1578.48 1639.7 1558.87 1639.7 1536.62C1639.7 1514.27 1644.1 1494.67 1652.91 1477.81C1661.81 1460.86 1674.45 1447.65 1690.84 1438.18C1707.31 1428.71 1726.96 1423.98 1749.78 1423.98C1769.95 1423.98 1787.52 1427.62 1802.48 1434.91C1817.54 1442.21 1829.28 1452.53 1837.71 1465.88C1846.23 1479.14 1850.73 1494.72 1851.2 1512.61H1786.29C1784.96 1501.44 1781.18 1492.68 1774.93 1486.34C1768.77 1479.99 1760.72 1476.82 1750.78 1476.82C1742.73 1476.82 1735.67 1479.09 1729.61 1483.64C1723.55 1488.09 1718.82 1494.72 1715.41 1503.52C1712.09 1512.23 1710.44 1523.03 1710.44 1535.91C1710.44 1548.79 1712.09 1559.68 1715.41 1568.58C1718.82 1577.39 1723.55 1584.06 1729.61 1588.61C1735.67 1593.06 1742.73 1595.28 1750.78 1595.28C1757.22 1595.28 1762.9 1593.91 1767.82 1591.16C1772.84 1588.42 1776.96 1584.39 1780.18 1579.09C1783.4 1573.69 1785.44 1567.16 1786.29 1559.49H1851.2C1850.54 1577.48 1846.04 1593.2 1837.71 1606.65C1829.47 1620.09 1817.87 1630.56 1802.91 1638.04C1788.04 1645.43 1770.38 1649.12 1749.93 1649.12ZM1886.75 1645V1426.82H1954.22V1466.59H1956.5C1960.47 1452.2 1966.96 1441.5 1975.96 1434.49C1984.95 1427.39 1995.42 1423.84 2007.35 1423.84C2010.57 1423.84 2013.88 1424.07 2017.29 1424.55C2020.7 1424.92 2023.87 1425.54 2026.81 1426.39V1486.76C2023.49 1485.62 2019.14 1484.73 2013.74 1484.06C2008.44 1483.4 2003.7 1483.07 1999.54 1483.07C1991.3 1483.07 1983.86 1484.91 1977.23 1488.61C1970.7 1492.21 1965.54 1497.27 1961.75 1503.81C1958.06 1510.25 1956.21 1517.82 1956.21 1526.53V1645H1886.75ZM2055.11 1645V1426.82H2124.57V1645H2055.11ZM2089.91 1401.39C2080.16 1401.39 2071.78 1398.17 2064.77 1391.73C2057.76 1385.2 2054.26 1377.34 2054.26 1368.15C2054.26 1359.06 2057.76 1351.3 2064.77 1344.86C2071.78 1338.32 2080.16 1335.06 2089.91 1335.06C2099.76 1335.06 2108.14 1338.32 2115.05 1344.86C2122.06 1351.3 2125.57 1359.06 2125.57 1368.15C2125.57 1377.34 2122.06 1385.2 2115.05 1391.73C2108.14 1398.17 2099.76 1401.39 2089.91 1401.39ZM2168.78 1726.82V1426.82H2237.53V1464.18H2239.66C2242.5 1457.55 2246.53 1451.16 2251.74 1445C2257.04 1438.84 2263.76 1433.83 2271.91 1429.94C2280.15 1425.97 2289.99 1423.98 2301.45 1423.98C2316.6 1423.98 2330.76 1427.95 2343.92 1435.91C2357.18 1443.86 2367.88 1456.13 2376.03 1472.7C2384.17 1489.27 2388.24 1510.39 2388.24 1536.05C2388.24 1560.77 2384.31 1581.46 2376.45 1598.12C2368.69 1614.79 2358.18 1627.29 2344.92 1635.62C2331.76 1643.96 2317.13 1648.12 2301.03 1648.12C2290.04 1648.12 2280.53 1646.33 2272.48 1642.73C2264.43 1639.13 2257.66 1634.39 2252.16 1628.52C2246.77 1622.65 2242.6 1616.35 2239.66 1609.63H2238.24V1726.82H2168.78ZM2236.82 1535.91C2236.82 1547.65 2238.38 1557.88 2241.51 1566.59C2244.73 1575.3 2249.32 1582.07 2255.29 1586.9C2261.35 1591.64 2268.59 1594.01 2277.02 1594.01C2285.54 1594.01 2292.79 1591.64 2298.75 1586.9C2304.72 1582.07 2309.22 1575.3 2312.25 1566.59C2315.37 1557.88 2316.94 1547.65 2316.94 1535.91C2316.94 1524.17 2315.37 1513.99 2312.25 1505.37C2309.22 1496.75 2304.72 1490.08 2298.75 1485.34C2292.88 1480.61 2285.64 1478.24 2277.02 1478.24C2268.5 1478.24 2261.25 1480.56 2255.29 1485.2C2249.32 1489.84 2244.73 1496.47 2241.51 1505.09C2238.38 1513.7 2236.82 1523.98 2236.82 1535.91ZM2547.8 1426.82V1477.95H2410.15V1426.82H2547.8ZM2438.99 1374.55H2508.45V1576.39C2508.45 1580.65 2509.11 1584.11 2510.44 1586.76C2511.86 1589.32 2513.89 1591.16 2516.55 1592.3C2519.2 1593.34 2522.37 1593.86 2526.06 1593.86C2528.71 1593.86 2531.51 1593.63 2534.44 1593.15C2537.47 1592.59 2539.75 1592.11 2541.26 1591.73L2551.77 1641.88C2548.46 1642.82 2543.77 1644.01 2537.71 1645.43C2531.74 1646.85 2524.59 1647.75 2516.26 1648.12C2499.97 1648.88 2486.01 1646.99 2474.36 1642.44C2462.8 1637.8 2453.95 1630.61 2447.8 1620.85C2441.73 1611.1 2438.8 1598.84 2438.99 1584.06V1374.55Z" fill="white"/>
<defs>
<linearGradient id="paint0_linear_751_4" x1="1500" y1="0" x2="1500" y2="3000" gradientUnits="userSpaceOnUse">
<stop stop-color="#AB30D5"/>
<stop offset="0.275" stop-color="#190045"/>
<stop offset="0.795" stop-color="#732F81"/>
<stop offset="0.95" stop-color="#780885"/>
</linearGradient>
</defs>
</svg>
